<?xml version="1.0" encoding="utf-8"?>
<!-- Generator: Adobe Illustrator 25.3.1, SVG Export Plug-In . SVG Version: 6.00 Build 0)  -->
<svg version="1.1" id="Layer_1" xmlns="http://www.w3.org/2000/svg" xmlns:xlink="http://www.w3.org/1999/xlink" x="0px" y="0px"
	 viewBox="0 0 140 38" style="enable-background:new 0 0 140 38;" xml:space="preserve">
<style type="text/css">
	.st0{fill-rule:evenodd;clip-rule:evenodd;fill:url(#SVGID_1_);}
	.st1{fill:#FFFFFF;}
	.st2{fill:#72727D;}
</style>
<g>
	<linearGradient id="SVGID_1_" gradientUnits="userSpaceOnUse" x1="5.8172" y1="6.1631" x2="31.4909" y2="31.8369">
		<stop  offset="5.102041e-03" style="stop-color:#0C57A3"/>
		<stop  offset="0.6997" style="stop-color:#084789"/>
		<stop  offset="0.9949" style="stop-color:#063F7D"/>
	</linearGradient>
	<path class="st0" d="M33.97,19c0,8.44-6.87,15.31-15.31,15.31S3.34,27.44,3.34,19c0-8.44,6.87-15.31,15.31-15.31
		S33.97,10.56,33.97,19z M36.81,19c0,10.03-8.13,18.15-18.15,18.15C8.63,37.15,0.5,29.03,0.5,19C0.5,8.97,8.63,0.85,18.65,0.85
		C28.68,0.85,36.81,8.97,36.81,19z M35.64,19c0-9.38-7.61-16.99-16.99-16.99C9.27,2.01,1.67,9.62,1.67,19
		c0,9.38,7.61,16.99,16.99,16.99C28.04,35.99,35.64,28.38,35.64,19z"/>
	<g>
		<polygon class="st1" points="22.31,19.19 27.34,26.71 27.21,26.71 24.11,26.71 23.98,26.71 18.95,19.19 23.98,11.67 24.11,11.67 
			27.21,11.67 27.34,11.67 		"/>
		<path class="st1" d="M19.24,24.22l1.37,2.05c-1.01,0.46-2.09,0.7-3.21,0.7c-3.18,0-6.1-2-7.25-4.98l-0.01-0.02H7.75v-1.88h8.73
			l1.26,1.88h-4.91c0.97,1.6,2.72,2.59,4.58,2.59C18.03,24.55,18.65,24.44,19.24,24.22z M7.75,16.68v1.88h1.89
			c-0.02,0.21-0.03,0.42-0.03,0.63c0,0.11,0,0.22,0.01,0.35h2.42c-0.01-0.13-0.01-0.24-0.01-0.35c0-0.2,0.01-0.41,0.04-0.62l0-0.01
			h4.22l1.26-1.88H7.75z M20.54,12.07c-1-0.44-2.05-0.67-3.14-0.67c-3.12,0-5.92,1.85-7.15,4.72h2.75c1.01-1.45,2.64-2.31,4.4-2.31
			c0.63,0,1.25,0.11,1.84,0.33l1.37-2.05L20.54,12.07z"/>
	</g>
	<g>
		<path class="st2" d="M63.16,16.04h1.67v8.28h-1.67V16.04z"/>
		<polygon class="st2" points="71.45,13.51 70.76,14.33 70.07,13.51 68.69,13.51 70,15.16 71.52,15.16 72.83,13.51 		"/>
		<path class="st2" d="M84.14,16.04h1.67v8.28h-1.67V16.04z"/>
		<path class="st2" d="M107.43,21.9c-0.22,0.52-0.52,0.98-0.91,1.36c-0.39,0.38-0.86,0.68-1.4,0.9c-0.54,0.22-1.13,0.32-1.77,0.32
			c-0.65,0-1.24-0.11-1.78-0.32c-0.54-0.22-1-0.51-1.39-0.9c-0.39-0.38-0.7-0.84-0.91-1.36c-0.22-0.52-0.32-1.1-0.32-1.72
			c0-0.62,0.11-1.19,0.32-1.72c0.22-0.53,0.52-0.98,0.91-1.37c0.39-0.38,0.86-0.68,1.39-0.9c0.54-0.22,1.13-0.32,1.78-0.32
			c0.64,0,1.23,0.11,1.77,0.32c0.54,0.22,1.01,0.51,1.4,0.9c0.39,0.38,0.7,0.84,0.91,1.37c0.22,0.53,0.32,1.1,0.32,1.72
			C107.75,20.8,107.64,21.38,107.43,21.9z M104.47,22.78c0.34-0.14,0.63-0.34,0.87-0.59c0.24-0.25,0.43-0.55,0.56-0.89
			c0.14-0.34,0.2-0.72,0.2-1.12s-0.07-0.78-0.2-1.12c-0.14-0.34-0.32-0.64-0.56-0.89c-0.24-0.25-0.53-0.44-0.87-0.58
			c-0.34-0.14-0.71-0.21-1.13-0.21c-0.41,0-0.79,0.07-1.13,0.21c-0.34,0.14-0.63,0.33-0.87,0.58c-0.24,0.25-0.43,0.54-0.56,0.89
			c-0.14,0.34-0.2,0.72-0.2,1.12s0.07,0.78,0.2,1.12c0.14,0.34,0.32,0.64,0.56,0.89c0.24,0.25,0.53,0.45,0.87,0.59
			c0.34,0.14,0.71,0.21,1.13,0.21C103.76,22.99,104.13,22.92,104.47,22.78z"/>
		<path class="st2" d="M139.31,20.85c-0.13-0.27-0.29-0.5-0.5-0.66c-0.21-0.17-0.44-0.3-0.71-0.39c-0.27-0.09-0.54-0.17-0.81-0.23
			c-0.27-0.06-0.54-0.11-0.81-0.15c-0.27-0.04-0.5-0.1-0.71-0.18c-0.21-0.08-0.37-0.17-0.5-0.29c-0.13-0.12-0.19-0.29-0.19-0.51
			c0-0.3,0.11-0.56,0.34-0.78c0.23-0.22,0.57-0.32,1.03-0.32c0.46,0,0.8,0.1,1.03,0.3c0.1,0.09,0.17,0.19,0.23,0.3l1.4-0.58
			c-0.15-0.3-0.34-0.56-0.59-0.78c-0.25-0.22-0.55-0.4-0.91-0.52c-0.35-0.12-0.74-0.18-1.17-0.18c-0.44,0-0.84,0.06-1.2,0.19
			c-0.36,0.13-0.67,0.31-0.92,0.54c-0.26,0.23-0.46,0.51-0.6,0.83c-0.14,0.32-0.21,0.67-0.21,1.05c0,0.41,0.06,0.76,0.19,1.03
			c0.13,0.27,0.29,0.49,0.5,0.66c0.21,0.17,0.44,0.31,0.7,0.4c0.26,0.09,0.53,0.17,0.81,0.23c0.28,0.06,0.55,0.11,0.81,0.15
			c0.26,0.04,0.5,0.1,0.7,0.17c0.21,0.07,0.37,0.17,0.5,0.3c0.13,0.13,0.19,0.3,0.19,0.51c0,0.33-0.12,0.6-0.37,0.8
			c-0.24,0.2-0.62,0.3-1.13,0.3c-0.5,0-0.87-0.1-1.11-0.3c-0.17-0.14-0.31-0.3-0.45-0.66l-1.42,0.59c0.04,0.12,0.09,0.25,0.14,0.35
			c0.15,0.32,0.36,0.58,0.63,0.8c0.27,0.22,0.59,0.39,0.96,0.51c0.38,0.12,0.79,0.18,1.25,0.18c0.46,0,0.88-0.06,1.26-0.18
			c0.38-0.12,0.7-0.3,0.97-0.52c0.27-0.22,0.48-0.5,0.63-0.82c0.15-0.32,0.22-0.68,0.22-1.09C139.5,21.47,139.44,21.13,139.31,20.85
			z"/>
		<path class="st2" d="M75.75,16.04h1.67v8.28h-1.67V16.04z"/>
		<polygon class="st2" points="79.78,20.18 82.58,16.04 80.74,16.04 77.94,20.18 80.74,24.32 82.58,24.32 		"/>
		<polygon class="st2" points="79.84,20.18 82.63,16.04 80.74,16.04 77.94,20.18 80.74,24.32 82.63,24.32 		"/>
		<polygon class="st2" points="95.63,20.18 98.43,16.04 96.53,16.04 93.73,20.18 96.53,24.32 98.43,24.32 		"/>
		<polygon class="st2" points="129.9,20.18 132.7,16.04 130.81,16.04 128.01,20.18 130.81,24.32 132.7,24.32 		"/>
		<path class="st2" d="M91.6,16.04h1.67v8.28H91.6V16.04z"/>
		<path class="st2" d="M125.88,16.04h1.67v8.28h-1.67V16.04z"/>
		<path class="st2" d="M116.37,18.49c-0.19-0.51-0.47-0.95-0.84-1.31c-0.37-0.36-0.83-0.64-1.38-0.84c-0.55-0.2-1.19-0.3-1.91-0.3
			h-1.29h-1.64v8.28h1.64h1.29c0.73,0,1.36-0.1,1.91-0.3s1.01-0.48,1.38-0.84c0.37-0.36,0.65-0.8,0.84-1.3
			c0.19-0.51,0.28-1.07,0.28-1.7C116.66,19.56,116.56,19,116.37,18.49z M114.85,21.27c-0.11,0.33-0.28,0.6-0.51,0.83
			c-0.23,0.23-0.52,0.41-0.86,0.53c-0.35,0.13-0.76,0.19-1.24,0.19h-1.29v-5.28h1.29c0.95,0,1.65,0.24,2.1,0.72
			c0.45,0.48,0.67,1.12,0.67,1.92C115.01,20.58,114.96,20.95,114.85,21.27z"/>
		<path class="st2" d="M49.4,20.83h3.45l0.28-1.44H49.4v-1.85h4.18l0.28-1.51h-4.87h-0.41h-0.11c-0.4,0-0.72,0.32-0.72,0.72v0.21
			v6.41v0.21c0,0.4,0.32,0.72,0.72,0.72h0.11h0.41h4.87v-1.49H49.4V20.83z"/>
		<path class="st2" d="M119.72,20.83h3.45l0.28-1.44h-3.73v-1.85h4.18l0.28-1.51h-4.87h-0.41h-0.11c-0.4,0-0.72,0.32-0.72,0.72v0.21
			v6.41v0.21c0,0.4,0.32,0.72,0.72,0.72h0.11h0.41h4.87v-1.49h-4.46V20.83z"/>
		<polygon class="st2" points="61.67,16.04 55.11,16.04 55.11,17.54 57.57,17.54 57.57,24.32 57.58,24.32 59.2,24.32 59.21,24.32 
			59.21,17.54 61.67,17.54 		"/>
		<path class="st2" d="M72.95,21.98c-0.16,0.21-0.35,0.39-0.58,0.55c-0.45,0.3-0.98,0.46-1.6,0.46c-0.41,0-0.79-0.07-1.13-0.21
			c-0.34-0.14-0.63-0.34-0.87-0.59c-0.24-0.25-0.43-0.55-0.56-0.89c-0.14-0.34-0.2-0.72-0.2-1.12s0.07-0.78,0.2-1.12
			c0.14-0.34,0.32-0.64,0.56-0.89c0.24-0.25,0.53-0.44,0.87-0.58c0.34-0.14,0.71-0.21,1.13-0.21c0.62,0,1.15,0.15,1.6,0.45
			c0.23,0.15,0.42,0.33,0.58,0.54l1.26-0.98c-0.2-0.24-0.42-0.46-0.67-0.65c-0.37-0.28-0.79-0.49-1.25-0.65
			c-0.47-0.15-0.97-0.23-1.51-0.23c-0.65,0-1.24,0.11-1.78,0.32c-0.54,0.22-1,0.51-1.39,0.9c-0.39,0.38-0.7,0.84-0.91,1.37
			c-0.22,0.53-0.32,1.1-0.32,1.72c0,0.62,0.11,1.2,0.32,1.72c0.22,0.52,0.52,0.98,0.91,1.36c0.39,0.38,0.86,0.68,1.39,0.9
			c0.54,0.22,1.13,0.32,1.78,0.32c0.54,0,1.04-0.08,1.51-0.23c0.47-0.15,0.89-0.37,1.25-0.65c0.25-0.19,0.47-0.4,0.67-0.64
			L72.95,21.98z"/>
	</g>
</g>
</svg>
